<svg id="Layer_1" data-name="Layer 1" xmlns="http://www.w3.org/2000/svg" viewBox="0 0 14.39 9.5"><defs><style>.cls-1{fill:#ffe12e;}</style></defs><title>favicon</title><path class="cls-1" d="M.71,12.52V9.35C.71,5,3.59,3,7.86,3S15.1,5,15.1,9.35v3.17ZM14.49,9.44c0-4-2.84-5.69-6.63-5.69S1.32,5.41,1.32,9.44v2.39H14.49Z" transform="translate(-0.71 -3.02)"/><path class="cls-1" d="M6,8.72H4.75V8.59H6c.47,0,.7-.18.7-.6a1.06,1.06,0,0,0-.49-.82H4.75V7h2v.11l-.41,0h0A1.07,1.07,0,0,1,6.81,8C6.81,8.48,6.55,8.72,6,8.72Z" transform="translate(-0.71 -3.02)"/><path class="cls-1" d="M10.76,8.76a1,1,0,0,1-1.06-1,.85.85,0,0,1,.92-.89h.14V8.72h-.12V6.91l.07.08c-.61,0-.89.32-.89.77a.88.88,0,0,0,.93.87.89.89,0,0,0,.94-.92A1.1,1.1,0,0,0,11.46,7L11.57,7a1.21,1.21,0,0,1,.24.75A1,1,0,0,1,10.76,8.76Z" transform="translate(-0.71 -3.02)"/><path class="cls-1" d="M8.76,10.8A.95.95,0,0,1,8,9.17H6.73V9h3v.11l-.31,0h0a1,1,0,0,1,.36.73C9.81,10.44,9.44,10.8,8.76,10.8ZM9.3,9.17H8.14a1,1,0,0,0-.32.69.88.88,0,0,0,.94.81c.55,0,.93-.29.93-.76A1.07,1.07,0,0,0,9.3,9.17Z" transform="translate(-0.71 -3.02)"/></svg>